<svg width="16" height="17" viewBox="0 0 16 17" fill="none" xmlns="http://www.w3.org/2000/svg">
<circle cx="8" cy="8.5" r="8" fill="#FEF3DD"/>
<path d="M11.8001 6.57216C11.7216 6.50659 11.6262 6.46442 11.5248 6.45046C11.4235 6.4365 11.3202 6.45132 11.2269 6.49321L9.48994 7.26556L8.48074 5.44625C8.4325 5.36131 8.36261 5.29067 8.2782 5.24153C8.19378 5.19239 8.09784 5.1665 8.00016 5.1665C7.90248 5.1665 7.80655 5.19239 7.72213 5.24153C7.63771 5.29067 7.56783 5.36131 7.51959 5.44625L6.51039 7.26556L4.77346 6.49321C4.67992 6.45138 4.57655 6.43655 4.47502 6.45039C4.37349 6.46423 4.27786 6.5062 4.19894 6.57156C4.12002 6.63691 4.06095 6.72303 4.02842 6.8202C3.99589 6.91736 3.99118 7.02169 4.01484 7.12139L4.88674 10.839C4.90341 10.9109 4.93452 10.9788 4.97818 11.0384C5.02185 11.098 5.07715 11.1481 5.14075 11.1857C5.22686 11.2372 5.32531 11.2645 5.42566 11.2646C5.47445 11.2645 5.52298 11.2576 5.56984 11.244C7.1591 10.8046 8.83779 10.8046 10.4271 11.244C10.5722 11.2822 10.7265 11.2612 10.8561 11.1857C10.9201 11.1486 10.9757 11.0986 11.0195 11.0389C11.0632 10.9792 11.0941 10.9112 11.1102 10.839L11.9855 7.12139C12.0089 7.02166 12.0039 6.91738 11.9712 6.82033C11.9384 6.72328 11.8792 6.63732 11.8001 6.57216Z" fill="#FFBF00"/>
</svg>
